HIERARCHY
ROOT Hips
{
  OFFSET 5.84602e-005 68.8428 3.50346
  CHANNELS 6 Xposition Yposition Zposition Zrotation Xrotation Yrotation
  JOINT Spine
  {
    OFFSET 0 8.597 -4.6522
    CHANNELS 3 Zrotation Xrotation Yrotation
    JOINT Spine1
    {
      OFFSET 0 7.8454 0.4098
      CHANNELS 3 Zrotation Xrotation Yrotation
      JOINT Spine2
      {
        OFFSET 0 9.7078 -2.1609
        CHANNELS 3 Zrotation Xrotation Yrotation
        JOINT Neck
        {
          OFFSET 0 21.8761 -0.4549
          CHANNELS 3 Zrotation Xrotation Yrotation
          JOINT Head
          {
            OFFSET 0 12.3537 3.3602
            CHANNELS 3 Zrotation Xrotation Yrotation
            End Site
            {
              OFFSET 0.0001 18.9506 0.5657
            }
          }
        }
        JOINT LeftShoulder
        {
          OFFSET 2.2086 21.1115 7.2329
          CHANNELS 3 Zrotation Xrotation Yrotation
          JOINT LeftArm
          {
            OFFSET 13.1193 3.0282 -4.8998
            CHANNELS 3 Zrotation Xrotation Yrotation
            JOINT LeftForeArm
            {
              OFFSET 27.4081 -0.0973053 -0.2375
              CHANNELS 3 Zrotation Xrotation Yrotation
              JOINT LeftHand
              {
                OFFSET 22.8641 0.0662994 -0.1369
                CHANNELS 3 Zrotation Xrotation Yrotation
                JOINT LeftHandIndex1
                {
                  OFFSET 8.8614 0.775009 2.4612
                  CHANNELS 3 Zrotation Xrotation Yrotation
                  JOINT LeftHandIndex2
                  {
                    OFFSET 3.3146 -0.808304 0.5841
                    CHANNELS 3 Zrotation Xrotation Yrotation
                    JOINT LeftHandIndex3
                    {
                      OFFSET 2.2628 -0.552002 0.3989
                      CHANNELS 3 Zrotation Xrotation Yrotation
                      End Site
                      {
                        OFFSET 1.6102 -0.4807 0.2612
                      }
                    }
                  }
                }
                JOINT LeftHandMiddle1
                {
                  OFFSET 8.9937 0.895004 0.2143
                  CHANNELS 3 Zrotation Xrotation Yrotation
                  JOINT LeftHandMiddle2
                  {
                    OFFSET 4.0984 0.0113983 -0.0242
                    CHANNELS 3 Zrotation Xrotation Yrotation
                    JOINT LeftHandMiddle3
                    {
                      OFFSET 2.2716 0.00689697 -0.0138001
                      CHANNELS 3 Zrotation Xrotation Yrotation
                      End Site
                      {
                        OFFSET 2.0404 -0.1441 0.0027
                      }
                    }
                  }
                }
                JOINT LeftHandRing1
                {
                  OFFSET 8.5234 0.597198 -2.0164
                  CHANNELS 3 Zrotation Xrotation Yrotation
                  JOINT LeftHandRing2
                  {
                    OFFSET 3.7188 -0.188293 -0.2328
                    CHANNELS 3 Zrotation Xrotation Yrotation
                    JOINT LeftHandRing3
                    {
                      OFFSET 2.1191 -0.106598 -0.1332
                      CHANNELS 3 Zrotation Xrotation Yrotation
                      End Site
                      {
                        OFFSET 1.8737 -0.2304 -0.0886
                      }
                    }
                  }
                }
                JOINT LeftHandPinky1
                {
                  OFFSET 7.9094 -0.601089 -3.4825
                  CHANNELS 3 Zrotation Xrotation Yrotation
                  JOINT LeftHandPinky2
                  {
                    OFFSET 2.2874 -0.477005 -0.6314
                    CHANNELS 3 Zrotation Xrotation Yrotation
                    JOINT LeftHandPinky3
                    {
                      OFFSET 1.6774 -0.349396 -0.4633
                      CHANNELS 3 Zrotation Xrotation Yrotation
                      End Site
                      {
                        OFFSET 1.4888 -0.4091 -0.3416
                      }
                    }
                  }
                }
                JOINT LeftHandThumb1
                {
                  OFFSET 1.833 -1.3875 1.3896
                  CHANNELS 3 Zrotation Xrotation Yrotation
                  JOINT LeftHandThumb2
                  {
                    OFFSET 3.4129 -1.121 2.5732
                    CHANNELS 3 Zrotation Xrotation Yrotation
                    JOINT LeftHandThumb3
                    {
                      OFFSET 2.2474 -0.804199 1.6192
                      CHANNELS 3 Zrotation Xrotation Yrotation
                      End Site
                      {
                        OFFSET 1.6527 -0.5689 1.1317
                      }
                    }
                  }
                }
              }
            }
          }
        }
        JOINT RightShoulder
        {
          OFFSET -2.2086 21.1115 7.2329
          CHANNELS 3 Zrotation Xrotation Yrotation
          JOINT RightArm
          {
            OFFSET -13.1216 3.0287 -4.9007
            CHANNELS 3 Zrotation Xrotation Yrotation
            JOINT RightForeArm
            {
              OFFSET -27.4081 -0.0973053 -0.2375
              CHANNELS 3 Zrotation Xrotation Yrotation
              JOINT RightHand
              {
                OFFSET -22.8641 0.0664063 -0.1369
                CHANNELS 3 Zrotation Xrotation Yrotation
                JOINT RightHandIndex1
                {
                  OFFSET -8.8614 0.774994 2.4612
                  CHANNELS 3 Zrotation Xrotation Yrotation
                  JOINT RightHandIndex2
                  {
                    OFFSET -3.3146 -0.808304 0.5841
                    CHANNELS 3 Zrotation Xrotation Yrotation
                    JOINT RightHandIndex3
                    {
                      OFFSET -2.2628 -0.552002 0.3989
                      CHANNELS 3 Zrotation Xrotation Yrotation
                      End Site
                      {
                        OFFSET -1.6102 -0.4807 0.2612
                      }
                    }
                  }
                }
                JOINT RightHandMiddle1
                {
                  OFFSET -8.9937 0.894989 0.2143
                  CHANNELS 3 Zrotation Xrotation Yrotation
                  JOINT RightHandMiddle2
                  {
                    OFFSET -4.0984 0.0113983 -0.0242
                    CHANNELS 3 Zrotation Xrotation Yrotation
                    JOINT RightHandMiddle3
                    {
                      OFFSET -2.2716 0.00691223 -0.0138001
                      CHANNELS 3 Zrotation Xrotation Yrotation
                      End Site
                      {
                        OFFSET -2.0404 -0.1441 0.0027
                      }
                    }
                  }
                }
                JOINT RightHandRing1
                {
                  OFFSET -8.5234 0.597198 -2.0164
                  CHANNELS 3 Zrotation Xrotation Yrotation
                  JOINT RightHandRing2
                  {
                    OFFSET -3.7188 -0.188309 -0.2328
                    CHANNELS 3 Zrotation Xrotation Yrotation
                    JOINT RightHandRing3
                    {
                      OFFSET -2.1191 -0.106598 -0.1332
                      CHANNELS 3 Zrotation Xrotation Yrotation
                      End Site
                      {
                        OFFSET -1.8737 -0.2304 -0.0886
                      }
                    }
                  }
                }
                JOINT RightHandPinky1
                {
                  OFFSET -7.9094 -0.601105 -3.4825
                  CHANNELS 3 Zrotation Xrotation Yrotation
                  JOINT RightHandPinky2
                  {
                    OFFSET -2.2874 -0.477005 -0.6314
                    CHANNELS 3 Zrotation Xrotation Yrotation
                    JOINT RightHandPinky3
                    {
                      OFFSET -1.6774 -0.349396 -0.4633
                      CHANNELS 3 Zrotation Xrotation Yrotation
                      End Site
                      {
                        OFFSET -1.4888 -0.4091 -0.3416
                      }
                    }
                  }
                }
                JOINT RightHandThumb1
                {
                  OFFSET -1.833 -1.38751 1.3896
                  CHANNELS 3 Zrotation Xrotation Yrotation
                  JOINT RightHandThumb2
                  {
                    OFFSET -3.41299 -1.12099 2.5732
                    CHANNELS 3 Zrotation Xrotation Yrotation
                    JOINT RightHandThumb3
                    {
                      OFFSET -2.24741 -0.804108 1.6192
                      CHANNELS 3 Zrotation Xrotation Yrotation
                      End Site
                      {
                        OFFSET -1.6527 -0.5689 1.1317
                      }
                    }
                  }
                }
              }
            }
          }
        }
      }
    }
  }
  JOINT RightUpLeg
  {
    OFFSET -9.1966 3.8861 -0.7581
    CHANNELS 3 Zrotation Xrotation Yrotation
    JOINT RightLeg
    {
      OFFSET -0.7359 -41.0265 0
      CHANNELS 3 Zrotation Xrotation Yrotation
      JOINT RightFoot
      {
        OFFSET 0 -40.2855 0
        CHANNELS 3 Zrotation Xrotation Yrotation
        JOINT RightToeBase
        {
          OFFSET 0 -5.6122 11.7359
          CHANNELS 3 Zrotation Xrotation Yrotation
          End Site
          {
            OFFSET 0 0 7.8731
          }
        }
      }
    }
  }
  JOINT LeftUpLeg
  {
    OFFSET 9.1965 3.8864 -0.7581
    CHANNELS 3 Zrotation Xrotation Yrotation
    JOINT LeftLeg
    {
      OFFSET 0.7359 -41.0268 0
      CHANNELS 3 Zrotation Xrotation Yrotation
      JOINT LeftFoot
      {
        OFFSET 0 -40.2855 0
        CHANNELS 3 Zrotation Xrotation Yrotation
        JOINT LeftToeBase
        {
          OFFSET 0 -5.6122 11.7359
          CHANNELS 3 Zrotation Xrotation Yrotation
          End Site
          {
            OFFSET 0 0 7.8731
          }
        }
      }
    }
  }
}
MOTION
Frames:	4
Frame Time:	0.0333333
39.7391 68.3153 48.6723 180 75.004 -180 -0.31573 2.66704 -0.883473 -0.591167 5.33861 -1.75507 -0.591166 5.33858 -1.75506 -1.61601e-005 -7.76686 -1.86619e-006 1.08517e-007 -14.5782 5.67859e-007 -61.2983 42.6545 14.1791 -22.9132 58.331 -14.9558 18.2014 -5.60171 -43.7361 37.6354 -5.53092 7.00362 -3.65962e-006 3.81713e-007 9.75681e-007 1.95857e-006 -5.77633e-007 1.66364e-006 -4.54423e-006 -1.00579e-006 1.28955e-006 -3.65962e-006 3.81713e-007 9.75681e-007 -0.0145299 -8.56399e-005 -2.05012e-006 -4.54423e-006 -1.00596e-006 1.28942e-006 -3.65962e-006 3.81713e-007 9.75681e-007 -0.0186661 -0.00116713 5.78313e-005 -4.54421e-006 -1.006e-006 1.28943e-006 -3.65962e-006 3.81713e-007 9.75681e-007 -0.0122411 -0.00324429 0.00067941 -4.5442e-006 -1.0059e-006 1.28957e-006 -3.65962e-006 3.81713e-007 9.75681e-007 1.95857e-006 -5.77633e-007 1.66364e-006 -4.54423e-006 -1.00579e-006 1.28955e-006 62.9941 43.0565 -18.4312 24.1659 58.5811 13.2098 -19.9041 -5.47885 36.9404 -35.5624 -2.88603 -8.20402 -2.31883e-006 1.97453e-007 6.44131e-007 -2.31883e-006 1.97453e-007 6.44131e-007 -4.63767e-006 3.94906e-007 1.28826e-006 -2.31883e-006 1.97453e-007 6.44131e-007 0.0148934 -9.15079e-005 -1.37717e-006 -3.86944e-006 -6.05513e-007 2.11597e-007 -2.31883e-006 1.97453e-007 6.44131e-007 0.019053 -0.00119993 -5.93072e-005 -4.63765e-006 3.95117e-007 1.28824e-006 -2.31883e-006 1.97453e-007 6.44131e-007 0.0122211 -0.00323806 -0.000675914 -4.63763e-006 3.95015e-007 1.28835e-006 -2.31883e-006 1.97453e-007 6.44131e-007 -2.31883e-006 1.97453e-007 6.44131e-007 -4.63767e-006 3.94906e-007 1.28826e-006 -164.431 -77.7828 -163.235 4.74769 0.0522324 -0.342514 -5.82407 -2.6294 -7.19543 4.27385e-007 -5.11417e-009 5.57518e-010 163.206 -77.0641 163.854 -5.69998 1.41813 0.367603 6.21496 -3.42149 5.44082 -1.71447e-007 2.94084e-009 -8.5492e-008 
39.7391 68.3153 48.7198 180 75.004 -180 -0.318769 2.8579 -0.883999 -0.594402 5.72037 -1.75533 -0.594403 5.72036 -1.75533 1.16969e-005 -8.55642 8.58544e-006 9.64654e-007 -15.2841 1.02114e-006 -61.1686 42.2247 13.6097 -22.6435 58.2638 -15.1069 18.0145 -5.42669 -42.9911 37.9507 -5.66216 6.40876 -2.0765e-006 -2.20413e-006 -9.10537e-006 -4.98327e-006 -8.74006e-007 -4.5742e-006 -2.5794e-006 6.79619e-008 -9.08838e-006 -2.0765e-006 -2.20413e-006 -9.10537e-006 -0.0145735 -9.3495e-005 -7.30414e-006 -4.53877e-006 6.46624e-007 -1.0752e-005 -2.0765e-006 -2.20413e-006 -9.10537e-006 -0.0186048 -0.0011664 4.92628e-005 -2.57916e-006 6.94587e-008 -9.08834e-006 -2.0765e-006 -2.20413e-006 -9.10537e-006 -0.0121859 -0.00322374 0.000655595 -2.57944e-006 6.89994e-008 -9.08831e-006 -2.0765e-006 -2.20413e-006 -9.10537e-006 -4.98327e-006 -8.74006e-007 -4.5742e-006 -2.5794e-006 6.79619e-008 -9.08838e-006 62.9607 42.562 -17.7513 23.8585 58.5085 13.3532 -19.5792 -5.23798 36.0314 -36.0037 -3.1456 -7.53442 1.54879e-006 8.02406e-007 4.32624e-007 3.28624e-006 1.12153e-006 -1.74447e-006 2.3188e-006 -1.97432e-007 -6.44269e-007 1.54879e-006 8.02406e-007 4.32624e-007 0.0149209 -9.36988e-005 -1.07028e-005 2.3188e-006 -1.97515e-007 -6.44245e-007 1.54879e-006 8.02406e-007 4.32624e-007 0.0190526 -0.00119747 -6.65546e-005 2.31879e-006 -1.97537e-007 -6.4426e-007 1.54879e-006 8.02406e-007 4.32624e-007 0.012351 -0.00327041 -0.000683167 2.31878e-006 -1.97486e-007 -6.44314e-007 1.54879e-006 8.02406e-007 4.32624e-007 3.28624e-006 1.12153e-006 -1.74447e-006 2.3188e-006 -1.97432e-007 -6.44269e-007 -164.431 -77.7828 -163.235 4.74769 0.0522324 -0.342514 -5.82407 -2.6294 -7.19543 4.27385e-007 -5.11417e-009 5.57518e-010 163.206 -77.0638 163.854 -5.69999 1.41877 0.36764 6.21497 -3.4218 5.44084 -6.7933e-007 6.63217e-008 8.14789e-008 
39.7391 68.3153 48.7673 180 75.004 -180 -0.321807 3.04873 -0.884482 -0.597643 6.10206 -1.75551 -0.597643 6.10205 -1.75551 2.81854e-005 -9.34615 -1.72023e-005 3.3935e-007 -15.99 1.27857e-007 -61.0455 41.7941 13.0455 -22.3746 58.1961 -15.257 17.8254 -5.2541 -42.2458 38.2646 -5.79663 5.8146 -2.27208e-006 -5.02842e-007 6.44934e-007 -4.77083e-015 1.31198e-014 -9.54166e-015 -6.36111e-015 1.70955e-014 -9.54166e-015 -2.27208e-006 -5.02842e-007 6.44934e-007 -0.0145721 -8.94632e-005 7.14298e-007 -1.95939e-006 5.77172e-007 -1.6634e-006 -2.27208e-006 -5.02842e-007 6.44934e-007 -0.0187465 -0.00117158 6.15329e-005 1.59028e-015 -2.78299e-015 -3.18055e-015 -2.27208e-006 -5.02842e-007 6.44934e-007 -0.0122024 -0.00323068 0.000682666 -8.82781e-032 7.95139e-016 6.36111e-015 -2.27208e-006 -5.02842e-007 6.44934e-007 -4.77083e-015 1.31198e-014 -9.54166e-015 -6.36111e-015 1.70955e-014 -9.54166e-015 62.9356 42.0672 -17.0776 23.552 58.4356 13.4956 -19.2506 -5.00235 35.1217 -36.4419 -3.41023 -6.86683 -1.98785e-015 -1.31198e-014 -0 3.97569e-016 -3.97569e-016 -1.59028e-015 1.19271e-015 -3.8763e-015 -0 -1.98785e-015 -1.31198e-014 -0 0.0150016 -8.99143e-005 1.31021e-006 0 8.24956e-015 -0 -1.98785e-015 -1.31198e-014 -0 0.0190091 -0.00119123 -5.50167e-005 -7.95139e-016 8.15017e-015 -1.59028e-015 -1.98785e-015 -1.31198e-014 -0 0.0122454 -0.00324304 -0.000674641 7.95139e-016 9.14409e-015 -0 -1.98785e-015 -1.31198e-014 -0 3.97569e-016 -3.97569e-016 -1.59028e-015 1.19271e-015 -3.8763e-015 -0 -164.496 -77.7369 -163.3 4.74771 0.148838 -0.347433 -5.8239 -2.67815 -7.19791 4.2873e-007 -3.17417e-008 -4.43816e-010 163.206 -77.0641 163.854 -5.69998 1.41813 0.367603 6.21496 -3.42149 5.44082 -1.71447e-007 2.94084e-009 -8.5492e-008 
39.7391 68.3153 48.8147 180 75.004 -180 -0.324846 3.23955 -0.88493 -0.600894 6.4837 -1.75564 -0.600893 6.48367 -1.75564 -2.70362e-006 -10.1351 -1.10001e-006 -5.63693e-007 -16.696 -3.88042e-007 -60.9289 41.3626 12.4863 -22.1066 58.1281 -15.4062 17.6342 -5.08405 -41.5004 38.5771 -5.9343 5.22117 2.27208e-006 5.02748e-007 -6.45026e-007 2.27208e-006 5.02748e-007 -6.45026e-007 2.27208e-006 5.02748e-007 -6.45026e-007 2.27208e-006 5.02748e-007 -6.45026e-007 -0.0145936 -8.5177e-005 8.98688e-007 2.27207e-006 5.02831e-007 -6.44964e-007 2.27208e-006 5.02748e-007 -6.45026e-007 -0.0187876 -0.00117477 5.01908e-005 3.83995e-006 2.57976e-007 5.85519e-007 2.27208e-006 5.02748e-007 -6.45026e-007 -0.0123758 -0.00327912 0.000685633 2.27206e-006 5.02804e-007 -6.45037e-007 2.27208e-006 5.02748e-007 -6.45026e-007 2.27208e-006 5.02748e-007 -6.45026e-007 2.27208e-006 5.02748e-007 -6.45026e-007 62.9184 41.5725 -16.4093 23.2466 58.3622 13.6369 -18.9187 -4.77204 34.2114 -36.877 -3.67984 -6.20132 2.31871e-006 -1.97177e-007 -6.44666e-007 2.31871e-006 -1.97177e-007 -6.44666e-007 7.95139e-016 5.26779e-015 -3.18055e-015 2.31871e-006 -1.97177e-007 -6.44666e-007 0.0150367 -9.18322e-005 2.23576e-007 1.19271e-015 2.18663e-015 -3.18055e-015 2.31871e-006 -1.97177e-007 -6.44666e-007 0.0189973 -0.00119161 -5.35389e-005 3.97569e-016 -1.0138e-014 1.59028e-015 2.31871e-006 -1.97177e-007 -6.44666e-007 0.0124055 -0.00328215 -0.000689958 4.13804e-032 1.49089e-015 -1.59028e-015 2.31871e-006 -1.97177e-007 -6.44666e-007 2.31871e-006 -1.97177e-007 -6.44666e-007 7.95139e-016 5.26779e-015 -3.18055e-015 -164.431 -77.7828 -163.235 4.74769 0.0522324 -0.342514 -5.82407 -2.6294 -7.19543 4.27385e-007 -5.11417e-009 5.57518e-010 163.206 -77.0641 163.854 -5.69998 1.41813 0.367603 6.21496 -3.42149 5.44082 -1.71447e-007 2.94084e-009 -8.5492e-008 
